# xmcd
#
# Track frame offsets: 
#        183
#        11750
#        23440
#        34975
#        45260
#        56745
#        69775
#        80960
#        89655
#        101435
#        111125
#        120415
#        131085
#        144830
#        156118
#        167440
#        178023
#        189733
#        201735
#        214670
#        225660
#        236128
#        247358
#        257200
#        266680
#        277855
#        288055
#        300730
#        309570
#        320388
#
# Disc length: 4439 seconds
#
# Revision: 1
# Processed by: cddbd v1.4PL0 Copyright (c) Steve Scherf et al.
# Submitted via: ExactAudioCopy v0.90b4
#
DISCID=ae11551e
DTITLE=Patsy Cline - The Best of Patsy Cline
DYEAR=1996
DGENRE=Country
TTITLE0=Walkin' After Midnight
TTITLE1=Let the Teardrops Fall
TTITLE2=I've Loved and Lost Again
TTITLE3=Too Many Secrets
TTITLE4=In Care of the Blues
TTITLE5=If I Could See the World (Through the Eyes of a Child)
TTITLE6=Hungry for Love
TTITLE7=Ain't No Wheels on This Ship
TTITLE8=If I Could Only Stay Asleep
TTITLE9=I'm Blue Again
TTITLE10=Love Me, Love Me Honey Do
TTITLE11=I Can See an Angel
TTITLE12=A Church, a Courtroom and Then Goodbye
TTITLE13=Lonely Street
TTITLE14=Crazy Dreams
TTITLE15=Gotta Lot of Rhythm in My Soul
TTITLE16=Today, Tomorrow and Forever
TTITLE17=Never No More
TTITLE18=Life's Railway to Heaven
TTITLE19=There He Goes
TTITLE20=Lovesick Blues
TTITLE21=Just Out of Reach
TTITLE22=Turn the Cards Slowly
TTITLE23=I'm Movin' Along
TTITLE24=That Wonderful Someone
TTITLE25=Walking Dream
TTITLE26=Yes, I Understand
TTITLE27=Try Again
TTITLE28=I Cried All the Way to the Altar
TTITLE29=Just a Closer Walk With Thee
EXTD=
EXTT0=
EXTT1=
EXTT2=
EXTT3=
EXTT4=
EXTT5=
EXTT6=
EXTT7=
EXTT8=
EXTT9=
EXTT10=
EXTT11=
EXTT12=
EXTT13=
EXTT14=
EXTT15=
EXTT16=
EXTT17=
EXTT18=
EXTT19=
EXTT20=
EXTT21=
EXTT22=
EXTT23=
EXTT24=
EXTT25=
EXTT26=
EXTT27=
EXTT28=
EXTT29=
PLAYORDER=
